<svg xmlns="http://www.w3.org/2000/svg" width="746" height="206" viewBox="0 0 746 206" role="img" aria-label="contribution goban">
  <style>
    .t { font: 600 15px 'Segoe UI', 'Helvetica Neue', Ubuntu, sans-serif; fill: #ece8de; }
    .r { font: 11px ui-monospace, SFMono-Regular, Menlo, Consolas, monospace; fill: #8e93ad; }
    .n { font: 700 26px 'Segoe UI', 'Helvetica Neue', Ubuntu, sans-serif; fill: #ece8de; }
    .l { font: 11.5px ui-monospace, SFMono-Regular, Menlo, Consolas, monospace; fill: #8e93ad; }
    .s { font: 13px 'Segoe UI', 'Helvetica Neue', Ubuntu, sans-serif; fill: #ece8de; }
    .g { font: 11px ui-monospace, SFMono-Regular, Menlo, Consolas, monospace; fill: #d9b45a; }
    .in { opacity: 0; animation: in .6s ease-out forwards; }
    @keyframes in { to { opacity: 1; } }
    @media (prefers-reduced-motion: reduce) { .in { animation: none; opacity: 1; } }
  </style>
  <defs><linearGradient id="dana" x1="0" x2="1"><stop offset="0" stop-color="#e2567a"/><stop offset=".55" stop-color="#f0a040"/><stop offset="1" stop-color="#d9b45a"/></linearGradient></defs>
  <rect x=".5" y=".5" width="745" height="205" rx="10" fill="#10162b" stroke="#26304f"/>
  <text class="t" x="22" y="32">contribution goban</text>
  <rect x="22" y="40" width="34" height="2" rx="1" fill="url(#dana)"/>
  <rect x="1" y="1" width="744" height="2" rx="1" fill="url(#dana)" opacity=".7"/>
  <text class="r" x="724" y="32" text-anchor="end">176 contributions · last year</text>
  <defs><radialGradient id="st" cx=".35" cy=".3" r=".75"><stop offset="0" stop-color="#fff"/><stop offset=".6" stop-color="#ece8de"/><stop offset="1" stop-color="#b5ad9b"/></radialGradient><radialGradient id="hot" cx=".35" cy=".3" r=".75"><stop offset="0" stop-color="#fff6d8"/><stop offset=".55" stop-color="#f0d594"/><stop offset="1" stop-color="#d9b45a"/></radialGradient></defs>
  <rect x="30" y="74" width="696" height="98" rx="4" fill="#151c33"/>
  <path d="M40 84V162 M53 84V162 M66 84V162 M79 84V162 M92 84V162 M105 84V162 M118 84V162 M131 84V162 M144 84V162 M157 84V162 M170 84V162 M183 84V162 M196 84V162 M209 84V162 M222 84V162 M235 84V162 M248 84V162 M261 84V162 M274 84V162 M287 84V162 M300 84V162 M313 84V162 M326 84V162 M339 84V162 M352 84V162 M365 84V162 M378 84V162 M391 84V162 M404 84V162 M417 84V162 M430 84V162 M443 84V162 M456 84V162 M469 84V162 M482 84V162 M495 84V162 M508 84V162 M521 84V162 M534 84V162 M547 84V162 M560 84V162 M573 84V162 M586 84V162 M599 84V162 M612 84V162 M625 84V162 M638 84V162 M651 84V162 M664 84V162 M677 84V162 M690 84V162 M703 84V162 M716 84V162 M40 84H716 M40 97H716 M40 110H716 M40 123H716 M40 136H716 M40 149H716 M40 162H716" stroke="#d9b45a" stroke-opacity=".16" stroke-width="1"/>
  <circle cx="79" cy="123" r="1.8" fill="#d9b45a" fill-opacity=".45"/>
  <circle cx="248" cy="123" r="1.8" fill="#d9b45a" fill-opacity=".45"/>
  <circle cx="417" cy="123" r="1.8" fill="#d9b45a" fill-opacity=".45"/>
  <circle cx="586" cy="123" r="1.8" fill="#d9b45a" fill-opacity=".45"/>
  <text class="l" x="40" y="68" font-size="10">Oct</text>
  <circle class="in" style="animation-delay:0.01s" cx="53" cy="97" r="2.4" fill="url(#st)"><title>2025-10-13: 1</title></circle>
  <text class="l" x="92" y="68" font-size="10">Nov</text>
  <circle class="in" style="animation-delay:0.07s" cx="118" cy="149" r="2.4" fill="url(#st)"><title>2025-11-21: 1</title></circle>
  <text class="l" x="157" y="68" font-size="10">Dec</text>
  <text class="l" x="209" y="68" font-size="10">Jan</text>
  <text class="l" x="261" y="68" font-size="10">Feb</text>
  <text class="l" x="313" y="68" font-size="10">Mar</text>
  <circle class="in" style="animation-delay:0.25s" cx="313" cy="123" r="4.2" fill="url(#st)"><title>2026-03-04: 4</title></circle>
  <circle class="in" style="animation-delay:0.26s" cx="326" cy="97" r="2.4" fill="url(#st)"><title>2026-03-09: 1</title></circle>
  <text class="l" x="378" y="68" font-size="10">Apr</text>
  <text class="l" x="430" y="68" font-size="10">May</text>
  <text class="l" x="495" y="68" font-size="10">Jun</text>
  <text class="l" x="547" y="68" font-size="10">Jul</text>
  <circle class="in" style="animation-delay:0.50s" cx="586" cy="149" r="2.4" fill="url(#st)"><title>2026-07-31: 1</title></circle>
  <circle class="in" style="animation-delay:0.50s" cx="586" cy="162" r="2.4" fill="url(#st)"><title>2026-08-01: 1</title></circle>
  <text class="l" x="599" y="68" font-size="10">Aug</text>
  <circle class="in" style="animation-delay:0.52s" cx="599" cy="84" r="2.4" fill="url(#st)"><title>2026-08-02: 1</title></circle>
  <circle class="in" style="animation-delay:0.56s" cx="651" cy="84" r="4.2" fill="url(#st)"><title>2026-08-30: 3</title></circle>
  <circle class="in" style="animation-delay:0.56s" cx="651" cy="97" r="3.3" fill="url(#st)"><title>2026-08-31: 2</title></circle>
  <circle class="in" style="animation-delay:0.56s" cx="651" cy="110" r="2.4" fill="url(#st)"><title>2026-09-01: 1</title></circle>
  <circle class="in" style="animation-delay:0.56s" cx="651" cy="149" r="4.2" fill="url(#st)"><title>2026-09-04: 5</title></circle>
  <text class="l" x="664" y="68" font-size="10">Sep</text>
  <circle class="in" style="animation-delay:0.58s" cx="664" cy="97" r="2.4" fill="url(#st)"><title>2026-09-07: 1</title></circle>
  <circle class="in" style="animation-delay:0.58s" cx="664" cy="149" r="2.4" fill="url(#st)"><title>2026-09-11: 1</title></circle>
  <circle class="in" style="animation-delay:0.59s" cx="677" cy="84" r="2.4" fill="url(#st)"><title>2026-09-13: 1</title></circle>
  <circle class="in" style="animation-delay:0.59s" cx="677" cy="110" r="3.3" fill="url(#st)"><title>2026-09-15: 2</title></circle>
  <circle class="in" style="animation-delay:0.60s" cx="690" cy="84" r="2.4" fill="url(#st)"><title>2026-09-20: 1</title></circle>
  <circle class="in" style="animation-delay:0.60s" cx="690" cy="97" r="4.2" fill="url(#st)"><title>2026-09-21: 3</title></circle>
  <circle class="in" style="animation-delay:0.60s" cx="690" cy="123" r="3.3" fill="url(#st)"><title>2026-09-23: 2</title></circle>
  <circle class="in" style="animation-delay:0.60s" cx="690" cy="136" r="4.2" fill="url(#st)"><title>2026-09-24: 5</title></circle>
  <circle class="in" style="animation-delay:0.60s" cx="690" cy="149" r="3.3" fill="url(#st)"><title>2026-09-25: 2</title></circle>
  <circle class="in" style="animation-delay:0.60s" cx="690" cy="162" r="4.2" fill="url(#st)"><title>2026-09-26: 3</title></circle>
  <circle class="in" style="animation-delay:0.61s" cx="703" cy="84" r="3.3" fill="url(#st)"><title>2026-09-27: 2</title></circle>
  <circle class="in" style="animation-delay:0.61s" cx="703" cy="110" r="5.2" fill="url(#hot)"><title>2026-09-29: 75</title></circle>
  <circle class="in" style="animation-delay:0.61s" cx="703" cy="123" r="5.2" fill="url(#hot)"><title>2026-09-30: 12</title></circle>
  <circle class="in" style="animation-delay:0.61s" cx="703" cy="136" r="5.2" fill="url(#hot)"><title>2026-10-01: 22</title></circle>
  <circle class="in" style="animation-delay:0.61s" cx="703" cy="149" r="4.2" fill="url(#st)"><title>2026-10-02: 4</title></circle>
  <circle class="in" style="animation-delay:0.61s" cx="703" cy="162" r="5.2" fill="url(#hot)"><title>2026-10-03: 12</title></circle>
  <circle class="in" style="animation-delay:0.62s" cx="716" cy="84" r="5.2" fill="url(#hot)"><title>2026-10-04: 7</title></circle>
  <text class="l" x="30" y="192">every day an intersection · every stone a day with contributions</text>
  <circle cx="642" cy="188" r="2.4" fill="url(#st)"/>
  <circle cx="658" cy="188" r="3.3" fill="url(#st)"/>
  <circle cx="674" cy="188" r="4.2" fill="url(#st)"/>
  <circle cx="690" cy="188" r="5.2" fill="url(#hot)"/>
</svg>
